<svg xmlns="http://www.w3.org/2000/svg" xmlns:xlink="http://www.w3.org/1999/xlink" version="1.1" width="1080"
    height="1080" viewBox="0 0 1080 1080" xml:space="preserve">
    <desc>Created with Fabric.js 5.2.4</desc>
    <defs>
    </defs>
    <rect x="0" y="0" width="100%" height="100%" fill="transparent"></rect>
    <g transform="matrix(1 0 0 1 540 540)" id="9dfc0923-9344-4c29-99a6-429f98ca0218">
    </g>
    <g transform="matrix(1 0 0 1 540 540)" id="d0199331-39b1-4fa4-b652-f296f3df379c">
        <rect
            style="stroke: none; stroke-width: 1; stroke-dasharray: none; stroke-linecap: butt; stroke-dashoffset: 0; stroke-linejoin: miter; stroke-miterlimit: 4; fill: rgb(255,255,255); fill-rule: nonzero; opacity: 1; visibility: hidden;"
            vector-effect="non-scaling-stroke" x="-540" y="-540" rx="0" ry="0" width="1080" height="1080" />
    </g>
    <g transform="matrix(3.76 0 0 1 407.59 540)">
        <path
            style="stroke: rgb(101,101,101); stroke-width: 12; stroke-dasharray: none; stroke-linecap: butt; stroke-dashoffset: 0; stroke-linejoin: miter; stroke-miterlimit: 4; fill: rgb(101,101,101); fill-rule: nonzero; opacity: 1;"
            vector-effect="non-scaling-stroke" transform=" translate(-50, -50)"
            d="M 90.375 90.375 L 9.625 90.375 L 9.625 9.625 L 90.375 9.625 L 90.375 90.375 z M 11.625 88.375 L 88.375 88.375 L 88.375 11.625 L 11.625 11.625 L 11.625 88.375 z"
            stroke-linecap="round" />
    </g>
    <g transform="matrix(0.99 0 0 1.25 594.65 540)" id="820be1a3-24ad-4ece-9f37-dc5c0d9e23cc">
        <polygon
            style="stroke: rgb(0,0,0); stroke-width: 0; stroke-dasharray: none; stroke-linecap: butt; stroke-dashoffset: 0; stroke-linejoin: miter; stroke-miterlimit: 4; fill: rgb(101,101,101); fill-rule: nonzero; opacity: 1;"
            vector-effect="non-scaling-stroke" points="-30.68,-37.41 30.68,0 -30.68,37.41 " />
    </g>
    <g transform="matrix(0 0 0 0 0 0)">
        <g style="">
        </g>
    </g>
    <g transform="matrix(-0.99 0 0 -1.25 219.92 540)">
        <polygon
            style="stroke: rgb(0,0,0); stroke-width: 0; stroke-dasharray: none; stroke-linecap: butt; stroke-dashoffset: 0; stroke-linejoin: miter; stroke-miterlimit: 4; fill: rgb(101,101,101); fill-rule: nonzero; opacity: 1;"
            vector-effect="non-scaling-stroke" points="-30.68,-37.41 30.68,0 -30.68,37.41 " />
    </g>
</svg>